@startuml

class AuthenticationManager
class WebSecurityConfigurerAdapter
class AuthorizationServerConfigurerAdapter
interface TokenStore

class JwtTokenStore

JwtTokenStore --|> TokenStore

class SecurityConfig {

}

SecurityConfig --|> WebSecurityConfigurerAdapter

SecurityConfig --> "authenticationManagerBean" AuthenticationManager
SecurityConfig --> "tokenStore" TokenStore

class AuthorizationServerConfig {
}

AuthorizationServerConfig --|> AuthorizationServerConfigurerAdapter
AuthorizationServerConfig ..> "tokenStore" TokenStore
AuthorizationServerConfig ..> "authenticationManager" AuthenticationManager

class UserDetailsService {
    UserDetails loadUserByUsername
}

class CrmUserDetailsService

CrmUserDetailsService --|> UserDetailsService

note top of UserDetailsService
Spring Security uses UserDetailsService
to retrieve user information from the
backend database
end note

interface UserDetails {
    Collection<? extends GrantedAuthority> getAuthorities()
    String getPassword()
    String getUsername()
    boolean isAccountNonExpired()
    boolean isAccountNonLocked()
    boolean isCredentialsNonExpired()
    boolean isEnabled()
}

class CrmUserDetails

CrmUserDetails --|> UserDetails

@enduml
